<svg height="512" viewBox="0 0 512 512" width="512" xmlns="http://www.w3.org/2000/svg"><g id="BULINE"><circle cx="256" cy="256" fill="#d87a1d" r="256"/></g><g id="Icons"><path d="m345.42 178.25c0-.13 0-.25 0-.37a11.86 11.86 0 0 0 -15.27-11.36 20.65 20.65 0 0 0 -12.66-8.76 11.84 11.84 0 0 0 -20-8.25 22.1 22.1 0 0 0 -16.32-7.18h-.31a11.85 11.85 0 0 0 -21.62-5 31.61 31.61 0 0 0 -42.84 10 11.83 11.83 0 0 0 -16.84 10.17 24.44 24.44 0 0 0 -15.37 8.3 11.85 11.85 0 0 0 -17.81 10.26v.47a24.5 24.5 0 1 0 22.24 41.23c17.93 4.5 42.85 7.29 70.4 7.29 28.11 0 53.48-2.9 71.48-7.56a21.34 21.34 0 1 0 14.85-39.29z" fill="#854224"/><path d="m243.73 62.31a37.79 37.79 0 1 1 -53.45 53.45c-11.49-11.49-22-54.42-26.15-72.89a5.59 5.59 0 0 1 6.7-6.71c18.47 4.11 61.41 14.66 72.9 26.15z" fill="#88ad3b"/><path d="m165.62 37.66 78.11 78.11a37.79 37.79 0 0 1 -53.45 0c-11.49-11.49-22-54.42-26.15-72.89a5.58 5.58 0 0 1 1.49-5.22z" fill="#6b862d"/><ellipse cx="216.5" cy="64.33" fill="#a3ca4a" rx="7.13" ry="16.4" transform="matrix(.707 -.707 .707 .707 17.92 171.93)"/><path d="m265.87 62.31a37.79 37.79 0 1 0 53.45 53.45c11.49-11.49 22-54.42 26.16-72.89a5.6 5.6 0 0 0 -6.71-6.71c-18.47 4.11-61.41 14.66-72.9 26.15z" fill="#88ad3b"/><path d="m344 37.66-78.11 78.11a37.79 37.79 0 0 0 53.45 0c11.49-11.49 22-54.42 26.16-72.89a5.61 5.61 0 0 0 -1.5-5.22z" fill="#6b862d"/><ellipse cx="293.1" cy="64.33" fill="#a3ca4a" rx="16.4" ry="7.13" transform="matrix(.707 -.707 .707 .707 40.36 226.1)"/><path d="m260.15 162h-10.7v-69.41c0-2 2.4-3.55 5.35-3.55 2.95 0 5.35 1.59 5.35 3.55z" fill="#6b862d"/><path d="m355.55 213.5a21.32 21.32 0 0 1 -26.78 4c-18 4.67-43.38 7.57-71.49 7.57-27.55 0-52.47-2.79-70.41-7.29a24.49 24.49 0 0 1 -37.33-2.92 24.41 24.41 0 0 1 15.1-9.75c0-.16 0-.32 0-.48a11.85 11.85 0 0 1 17.81-10.26 24.41 24.41 0 0 1 15.37-8.3 11.84 11.84 0 0 1 16.85-10.17 31.58 31.58 0 0 1 42.82-10.05 11.85 11.85 0 0 1 21.63 5h.31a22.1 22.1 0 0 1 16.32 7.18 11.84 11.84 0 0 1 20 8.24 20.65 20.65 0 0 1 12.65 8.77 11.75 11.75 0 0 1 3.42-.51 11.87 11.87 0 0 1 11.86 11.87v.37a21.24 21.24 0 0 1 11.87 6.73z" fill="#ce9b46"/><path d="m343.61 195.78c0-.12 0-.24 0-.36a11.87 11.87 0 0 0 -11.86-11.87 11.75 11.75 0 0 0 -3.42.51 20.65 20.65 0 0 0 -12.65-8.77 11.85 11.85 0 0 0 -20-8.25 22.09 22.09 0 0 0 -16.32-7.17h-.31a11.85 11.85 0 0 0 -21.63-5 31.58 31.58 0 0 0 -42.82 10 11.84 11.84 0 0 0 -16.85 10.17 24.41 24.41 0 0 0 -15.37 8.3 11.85 11.85 0 0 0 -17.81 10.26v.47a24.47 24.47 0 0 0 -15.1 9.76 24.49 24.49 0 0 0 37.33 2.92l1.24.29a16.36 16.36 0 0 0 -3.41 3.49 16.14 16.14 0 0 0 24.59 1.92c11.81 3 28.23 4.8 46.37 4.8 18.52 0 35.23-1.91 47.09-5a14 14 0 0 0 17.64-2.66 13.88 13.88 0 0 0 -1-1c3.31-.66 6.46-1.37 9.4-2.13a21.31 21.31 0 0 0 26.78-4 21.36 21.36 0 0 0 -11.89-6.68z" fill="#5e3723"/><path d="m378 457.07a18.7 18.7 0 0 1 -33.35 11.93 32.09 32.09 0 0 0 -25.14-11.67h-130.57a32.11 32.11 0 0 0 -25.14 11.67 18.7 18.7 0 0 1 -29.41-23.09c6.39-8.23 9.74-18.43 8.56-28.78a472.22 472.22 0 0 1 2.85-129q1.5-9.34 3.38-18.7h210.4q1.44 9.38 2.6 18.7.52 4.13 1 8.23c.11 1 .21 1.92.31 2.88a593.77 593.77 0 0 1 1.25 117.73v.46c-.08.89-.12 1.78-.13 2.68a38.33 38.33 0 0 0 9 25.21 18.66 18.66 0 0 1 4.39 11.75z" fill="#9e795a"/><path d="m373.54 445.22a38 38 0 0 1 -8.49-18.66 130.57 130.57 0 0 1 -58.88 13.89c-70.49 0-127.64-55.26-127.64-123.43 0-.4 0-.8 0-1.2a28.08 28.08 0 0 1 28.09-27.82h155.8q-1.17-9.33-2.61-18.7h-210.63q-1.87 9.36-3.38 18.7a472.62 472.62 0 0 0 -2.86 129.05 39.7 39.7 0 0 1 -8.55 28.78 18.63 18.63 0 0 0 -3.91 11.29 18.7 18.7 0 0 0 33.32 11.88 32.09 32.09 0 0 1 25.14-11.67h130.56a32.1 32.1 0 0 1 25.15 11.67 18.7 18.7 0 1 0 28.89-23.73z" fill="#856750"/><path d="m364.72 416.87v.46c-30.05-8.16-51.76-31.61-51.76-59.27 0-27.28 21.12-50.47 50.54-58.92a593.77 593.77 0 0 1 1.22 117.73z" fill="#af866c"/><path d="m364.87 234.74h-1a12.84 12.84 0 0 0 9.45-12.38v-8.91a12.84 12.84 0 0 0 -12.84-12.84h-212.48a12.84 12.84 0 0 0 -12.84 12.84v8.91a12.83 12.83 0 0 0 9.45 12.38h-1a13.09 13.09 0 0 0 -13.09 13.09v8.41a13.09 13.09 0 0 0 13.09 13.09h221.3a13.09 13.09 0 0 0 13.09-13.09v-8.41a13.09 13.09 0 0 0 -13.13-13.09z" fill="#c69867"/><path d="m189.08 253.13c-4.59 0-8.62-3.53-11-8a5.34 5.34 0 0 1 5-7.78c18.81.67 43.76 1.09 71.14 1.09 58.52 0 106-1.89 106-4.21s-47.44-4.21-106-4.21c-27.15 0-51.91.41-70.66 1.07a5.1 5.1 0 0 1 -3.88-8.62c.26-.27.53-.53.81-.77a7.06 7.06 0 0 0 1.81-8.63 14.63 14.63 0 0 1 -1.64-7v-5.54h-32.66a12.83 12.83 0 0 0 -12.84 12.83v8.92a12.84 12.84 0 0 0 9.45 12.38h-1a13.08 13.08 0 0 0 -13.09 13.09v8.41a13.08 13.08 0 0 0 13.09 13.09h221.26a13.09 13.09 0 0 0 13.13-13.01v-3.11z" fill="#b48a62"/><ellipse cx="329.78" cy="215.2" fill="#e5ba8d" rx="11.92" ry="6.31"/><ellipse cx="354.33" cy="215.2" fill="#e5ba8d" rx="6.82" ry="3.61"/><ellipse cx="347.51" cy="337.28" fill="#cda88f" rx="10.49" ry="19.81"/><ellipse cx="347.51" cy="378.07" fill="#cda88f" rx="6" ry="11.33"/><g fill="#502f20"><circle cx="302.03" cy="171.16" r="4.74"/><circle cx="202.07" cy="186.57" r="4.74"/><circle cx="238.03" cy="142.72" r="4.74"/><circle cx="254.8" cy="191.31" r="4.74"/><circle cx="334.53" cy="191.31" r="4.74"/><circle cx="159.4" cy="186.57" r="4.74"/><circle cx="247.51" cy="166.42" r="4.74"/></g></g></svg>