<svg height="512" viewBox="0 0 512 512" width="512" xmlns="http://www.w3.org/2000/svg"><g id="Layer_3" data-name="Layer 3"><path d="m431.47 497.37-1.81-2.66a31.788 31.788 0 0 1 -5.53-17.92c0-.77.03-1.53.09-2.3l-345.56.06a27.686 27.686 0 0 0 27.66 26.45h323.35a2.262 2.262 0 0 0 1.8-3.63z" fill="#c79a83"/><path d="m106.32 445.55a27.706 27.706 0 0 0 -27.7 27.73c0 .43.01.85.04 1.27l345.56-.06a31.726 31.726 0 0 1 7.66-18.52 5.944 5.944 0 0 0 1.21-3.58v-6.84z" fill="#e1b7a3"/><path d="m413.66 11a19.717 19.717 0 0 1 19.72 19.73l-.29 414.82h-297.85v-434.55z" fill="#8bb3eb"/><path d="m135.24 11v434.55h-28.92a27.706 27.706 0 0 0 -27.7 27.73v-442.55a19.726 19.726 0 0 1 19.73-19.73z" fill="#774943"/><path d="m280.07 108.3a94.72 94.72 0 0 1 -1.86 189.42c-.59 0-1.18-.01-1.76-.02 25.86-.06 48.13-21.47 48.13-47.36 0-25.92-20.47-47.34-46.37-47.34-25.26-2.79-39.98-17.14-40.42-43.05-.33-19.06 9.78-46.52 42.28-51.65z" fill="#ffe07d"/><path d="m278.21 203c25.9 0 46.37 21.42 46.37 47.34 0 25.89-22.27 47.3-48.13 47.36h-.1a94.72 94.72 0 0 1 1.86-189.42c.62 0 1.24.01 1.86.02-32.5 5.13-42.61 32.59-42.28 51.65.44 25.91 15.16 40.26 40.42 43.05z" fill="#e6646e"/><path d="m286.76 134.5a16.61 16.61 0 1 1 -16.6 16.61 16.6 16.6 0 0 1 16.6-16.61z" fill="#e6646e"/><path d="m273.33 231.27a16.61 16.61 0 1 1 -16.59 16.61 16.606 16.606 0 0 1 16.59-16.61z" fill="#ffe07d"/><path d="m128.35 11h-30a19.4 19.4 0 0 0 -19.35 19.73v442.55a27 27 0 0 1 27.32-27.28h2.68v-415.27a19.4 19.4 0 0 1 19.35-19.73z" fill="#593835"/><path d="m213.57 203a94.5 94.5 0 0 1 30.378-69.528c6.152-11.879 17.428-22.221 36.122-25.172-.62-.01-1.24-.02-1.86-.02-52.27 0-94.64 42.56-94.64 94.87a94.818 94.818 0 0 0 92.78 94.85h.1a46.942 46.942 0 0 0 12.943-2.009 94.89 94.89 0 0 1 -75.823-92.991z" fill="#b75662"/><g fill="#284268"><path d="m276.35 303.693h.106c.585.01 1.168.022 1.755.022a101.014 101.014 0 1 0 -1.861-.024zm4.208-189.378a88.721 88.721 0 0 1 39.826 166.7 51.989 51.989 0 0 0 10.2-30.675c0-29.3-23.307-53.149-52.024-53.341-22.7-2.605-34.392-15.105-34.769-37.156-.314-18.198 9.152-40.943 36.767-45.528zm-35.177 6.279c-9.508 11.15-13.826 25.686-13.59 39.456.484 28.339 16.736 45.71 45.762 48.914a6.018 6.018 0 0 0 .658.036c22.26 0 40.371 18.546 40.371 41.342 0 22.381-19.28 41.293-42.125 41.353a88.725 88.725 0 0 1 -31.076-171.1z"/><path d="m273.332 270.49a22.608 22.608 0 1 0 -22.595-22.608 22.627 22.627 0 0 0 22.595 22.608zm0-33.216a10.608 10.608 0 1 1 -10.595 10.608 10.614 10.614 0 0 1 10.595-10.608z"/><path d="m286.756 173.717a22.608 22.608 0 1 0 -22.594-22.608 22.627 22.627 0 0 0 22.594 22.608zm0-33.215a10.608 10.608 0 1 1 -10.594 10.607 10.613 10.613 0 0 1 10.594-10.609z"/><path d="m373.38 334.012h-178.145a6 6 0 0 0 0 12h178.145a6 6 0 0 0 0-12z"/><path d="m373.38 356.012h-178.145a6 6 0 0 0 0 12h178.145a6 6 0 0 0 0-12z"/><path d="m373.38 378.012h-178.145a6 6 0 0 0 0 12h178.145a6 6 0 0 0 0-12z"/><path d="m106.321 507h323.354a8.258 8.258 0 0 0 6.689-13.1l-1.75-2.568a25.861 25.861 0 0 1 1.805-31.443c.078-.09.153-.183.226-.277a11.953 11.953 0 0 0 2.446-7.218l.289-421.662a25.716 25.716 0 0 0 -25.716-25.732h-315.312a25.761 25.761 0 0 0 -25.732 25.732v442.545a33.75 33.75 0 0 0 33.701 33.723zm0-12a21.737 21.737 0 0 1 -20.468-14.515h332.489a37.677 37.677 0 0 0 4.458 14.515zm320.794-42.693a37.682 37.682 0 0 0 -8.032 16.178h-333.924a21.738 21.738 0 0 1 21.162-16.931h320.795zm-342.495-421.575a13.747 13.747 0 0 1 13.732-13.732h30.883v45.845a6 6 0 0 0 12 0v-45.845h272.429a13.717 13.717 0 0 1 13.716 13.726l-.257 408.828h-285.888v-336.709a6 6 0 0 0 -12 0v336.709h-22.914a33.537 33.537 0 0 0 -21.7 7.941z"/><path d="m108 48.715a6 6 0 0 0 6-6v-2.7a6 6 0 0 0 -12 0v2.7a6 6 0 0 0 6 6z"/><path d="m114 148.788v-86.711a6 6 0 0 0 -12 0v86.711a6 6 0 0 0 12 0z"/></g></g></svg>